:SAMPLES-PER-SECOND 30
:FULLY-SPECIFIED
:DEGREES
538
root  -20.7549 36.435 -19.0765 55.3002 12.5118 36.0195
Spine  -3.68575 11.6321 19.3746
Spine1  -7.89442 1.78228 -47.4304
Neck  3.97569e-016 0 -2.38542e-015
Head  13.4099 -4.71613 10.1392
R_Clavicle  -1.74344 21.5224 -3.67385
R_UpperArm  41.7956 38.2595 0.468295
R_Forearm  -6.50082 -20.8932 18.4397
R_Hand  2.8001 16.6963 -1.39273
L_Clavicle  0.1181 -16.8424 1.22624
L_UpperArm  -24.0605 -58.2525 -58.2438
L_Forearm  -25.3728 11.1624 13.1599
L_Hand  -1.17908 9.18132 -8.90484
L_Thigh  3.46078 17.8984 -37.6731
L_Calf  15.9507 -3.56808 35.5992
L_Foot  -8.53863 10.524 -38.8556
L_Toe0  6.63052 -0.672903 -1.02072
R_Thigh  -12.6918 -9.61076 59.2985
R_Calf  4.46921 -3.95607 -12.4025
R_Foot  -0.452214 0.0880595 4.17559
R_Toe0  -1.78853 -0.272788 -17.3235
539
root  -21.3301 39.5946 -19.2523 81.0049 25.1725 39.2999
Spine  -6.67002 7.78923 17.5416
Spine1  -8.84044 -0.685324 -42.0061
Neck  3.97569e-016 0 -2.38542e-015
Head  16.8446 -12.4925 8.9173
R_Clavicle  -1.60746 15.2063 -4.23908
R_UpperArm  41.7601 31.2884 25.5235
R_Forearm  -6.77054 -24.5405 21.4307
R_Hand  3.00894 15.2956 0.982328
L_Clavicle  -0.662191 -15.6261 3.96496
L_UpperArm  -12.5354 -51.5207 -58.3778
L_Forearm  -18.2711 8.51111 9.93512
L_Hand  -0.98928 7.85483 -8.21375
L_Thigh  5.48482 24.4512 -26.3388
L_Calf  16.0287 -2.98949 20.9638
L_Foot  -6.94499 -0.464923 -35.7276
L_Toe0  0.0186224 0.091265 -6.57921
R_Thigh  -17.0466 -17.0747 52.2014
R_Calf  5.64206 -8.14951 -26.3242
R_Foot  -0.652393 -0.0790404 5.36792
R_Toe0  -1.78853 -0.272788 -17.3235
540
root  -21.702 42.6748 -19.1219 107.145 36.3791 44.9796
Spine  -7.43956 1.74015 18.6546
Spine1  -8.56377 1.55949 -31.0258
Neck  3.97569e-016 0 -2.38542e-015
Head  21.1272 -20.5787 6.64632
R_Clavicle  -1.21027 5.44441 -4.60618
R_UpperArm  39.2438 20.3122 53.7705
R_Forearm  -2.25483 -28.6512 22.3041
R_Hand  2.73164 14.0819 0.773379
L_Clavicle  -0.0641722 -13.429 1.6781
L_UpperArm  2.69024 -43.0011 -55.901
L_Forearm  -8.08232 7.5162 8.74369
L_Hand  -0.741431 5.79724 -7.25312
L_Thigh  17.5624 24.5922 -11.8932
L_Calf  19.5922 0.344628 -3.14348
L_Foot  -4.47028 -3.12561 -22.1163
L_Toe0  0.505156 0.034446 -6.1361
R_Thigh  -13.6102 -19.3223 39.4471
R_Calf  3.3815 -11.2237 -37.8265
R_Foot  -0.818522 -0.324792 6.03566
R_Toe0  -1.78853 -0.272788 -17.3235
541
root  -21.8246 45.8613 -18.576 133.504 42.8057 51.5348
Spine  -8.13149 -1.9882 21.3032
Spine1  -8.68765 3.82128 -23.2008
Neck  3.97569e-016 0 -2.38542e-015
Head  25.938 -22.0962 3.37833
R_Clavicle  -0.553843 -5.23438 -4.14529
R_UpperArm  36.0022 8.04663 69.5725
R_Forearm  -2.62226 -35.7332 23.2486
R_Hand  3.2644 11.5112 6.51846
L_Clavicle  0.619709 -10.4538 -1.43599
L_UpperArm  13.9994 -34.6628 -48.2071
L_Forearm  1.3252 11.2007 13.1997
L_Hand  -0.564105 4.11477 -6.43237
L_Thigh  24.5807 21.2587 3.31967
L_Calf  24.56 3.33317 -25.5675
L_Foot  -3.04308 -3.03291 -13.3857
L_Toe0  0.505156 0.034446 -6.1361
R_Thigh  -5.14981 -14.0862 29.5789
R_Calf  1.99206 -12.683 -44.0534
R_Foot  -0.717425 0.695278 8.34787
R_Toe0  -1.78853 -0.272788 -17.3235
542
root  -21.3053 49.0208 -17.7309 160.619 45.4614 57.3081
Spine  -11.6642 -5.25916 24.3123
Spine1  -11.6688 6.10488 -17.2192
Neck  3.97569e-016 0 -2.38542e-015
Head  24.1595 -20.0305 -0.544125
R_Clavicle  -0.0465334 -12.0323 -2.82528
R_UpperArm  31.7684 -3.3098 70.8438
R_Forearm  -6.37308 -40.8965 24.1702
R_Hand  2.77429 5.6749 14.9848
L_Clavicle  1.08712 -7.54525 -4.29436
L_UpperArm  15.0404 -29.9797 -33.5615
L_Forearm  4.62365 18.3367 22.4917
L_Hand  -0.342818 5.20025 -3.49998
L_Thigh  20.7412 15.135 17.3579
L_Calf  17.5979 5.45532 -44.4488
L_Foot  -0.732983 3.84005 -7.71373
L_Toe0  0.505156 0.034446 -6.1361
R_Thigh  1.36366 -5.58322 27.5797
R_Calf  1.08137 -13.2153 -46.51
R_Foot  -0.159305 3.14958 12.1741
R_Toe0  -1.78853 -0.272788 -17.3235
543
root  -19.9577 51.6301 -16.464 -171.352 46.7824 63.3024
Spine  -16.396 -10.1197 30.0546
Spine1  -14.9727 12.7497 -12.0171
Neck  3.97569e-016 0 -2.38542e-015
Head  19.0364 -21.8797 -3.41167
R_Clavicle  0.248439 -15.0199 -0.460853
R_UpperArm  20.6794 -14.8126 69.8594
R_Forearm  0.291514 -35.0204 21.9545
R_Hand  1.68072 1.92758 16.3252
L_Clavicle  0.937904 -3.53741 -4.98257
L_UpperArm  4.91853 -29.4518 -15.8333
L_Forearm  4.67687 23.3194 29.8508
L_Hand  -0.19449 4.65691 -1.89612
L_Thigh  8.88934 9.39089 24.8706
L_Calf  8.17419 6.81951 -60.9356
L_Foot  5.42877 15.0181 5.11252
L_Toe0  0.505156 0.034446 -6.1361
R_Thigh  4.69922 1.89102 31.1552
R_Calf  1.234 -13.7684 -49.2099
R_Foot  0.368372 5.12042 15.9602
R_Toe0  -1.78853 -0.272788 -17.3235
